<?xml version="1.0" encoding="UTF-8"?>
<svg id="a" data-name="Layer 1" xmlns="http://www.w3.org/2000/svg" width="920.565" height="481.167" viewBox="0 0 920.565 481.167">
  <g >
    <path d="M0,0h87.575c11.834,0,22.287,2.492,31.361,7.47,9.072,4.981,16.173,12.082,21.302,21.302,5.127,9.223,7.692,20.144,7.692,32.767,0,12.526-2.048,22.659-6.139,30.4-4.093,7.743-9,13.536-14.719,17.382-5.721,3.846-10.998,6.312-15.828,7.397l46.746,78.551h-64.202l-40.237-74.113h3.846v74.113H0V0ZM57.397,82.397h9.468c5.226,0,10.23-1.232,15.015-3.698,4.782-2.464,7.174-7.544,7.174-15.237s-2.318-12.771-6.953-15.237c-4.637-2.464-9.567-3.698-14.793-3.698h-9.912v37.87Z"/>
    <path d="M184.023,0h131.066v49.705h-73.817v23.669h73.817v48.078h-73.817v24.112h73.817v49.705h-131.066V0Z"/>
    <path d="M573.668,0v195.269h-57.249v-97.042l2.367-40.237-9.024,46.894-22.929,71.45h-56.066l-22.781-71.45-9.023-46.894,2.367,40.237v97.042h-57.249V0h81.954l29.586,114.351,3.254,19.379,3.254-19.379L491.714,0h81.954Z"/>
    <path d="M654.879,125.001L586.387,0h69.675l27.367,59.912L710.944,0h69.38l-68.196,125.001v70.268h-57.249v-70.268Z"/>
  </g>
  <g>
    <path d="M0,328.058c0-14.201,2.588-27.441,7.766-39.719,5.178-12.278,12.401-23.003,21.672-32.175,9.268-9.171,20.141-16.321,32.619-21.45,12.475-5.127,25.961-7.692,40.459-7.692,14.793,0,28.426,2.565,40.902,7.692,12.475,5.129,23.322,12.278,32.545,21.45,9.221,9.172,16.369,19.897,21.449,32.175,5.078,12.278,7.619,25.518,7.619,39.719,0,14.301-2.467,27.589-7.396,39.867-4.934,12.278-11.959,23.028-21.08,32.249-9.123,9.223-19.947,16.397-32.471,21.524-12.525,5.126-26.383,7.692-41.568,7.692-15.584,0-29.66-2.566-42.234-7.692-12.574-5.127-23.352-12.302-32.324-21.524-8.975-9.221-15.879-19.971-20.709-32.249-4.833-12.278-7.249-25.566-7.249-39.867ZM153.403,429.095c5.523,0,10.627-.666,15.311-1.997,4.684-1.332,8.529-2.76,11.539-4.29,3.008-1.528,4.709-2.589,5.104-3.181l18.049,36.687c-3.355,6.213-9.32,11.908-17.9,17.086s-19.035,7.767-31.361,7.767c-7.596,0-13.979-.888-19.156-2.663-5.178-1.774-10.012-3.846-14.498-6.213-4.488-2.367-9.418-4.438-14.793-6.213-5.377-1.775-12.107-2.663-20.193-2.663-6.115,0-11.416.813-15.902,2.441-4.488,1.627-7.965,3.277-10.428,4.955-2.467,1.676-3.799,2.712-3.994,3.106l-22.043-26.331c5.918-7.692,14.621-14.079,26.109-19.157s24.434-7.618,38.832-7.618c8.58,0,15.877.69,21.895,2.07,6.014,1.383,11.613,2.763,16.791,4.143,5.176,1.38,10.725,2.071,16.641,2.071ZM59.765,328.058c0,8.779,1.773,16.79,5.324,24.039,3.551,7.248,8.529,13.018,14.941,17.308,6.41,4.29,13.906,6.435,22.486,6.435,8.676,0,16.221-2.145,22.633-6.435,6.41-4.29,11.391-10.06,14.941-17.308,3.549-7.249,5.324-15.26,5.324-24.039s-1.775-16.765-5.324-23.965c-3.551-7.198-8.531-12.967-14.941-17.308-6.412-4.339-13.957-6.509-22.633-6.509-8.58,0-16.076,2.17-22.486,6.509-6.412,4.341-11.391,10.11-14.941,17.308-3.551,7.2-5.324,15.188-5.324,23.965Z"/>
    <path d="M330.92,230.572h57.249v119.084c0,16.076-3.106,30.081-9.319,42.013-6.213,11.934-15.361,21.205-27.441,27.811-12.081,6.606-26.948,9.912-44.601,9.912s-32.57-3.306-44.749-9.912c-12.182-6.605-21.376-15.877-27.589-27.811-6.214-11.932-9.32-25.937-9.32-42.013v-119.084h57.249v115.978c0,7.2.888,13.092,2.663,17.678s4.461,7.965,8.062,10.134c3.599,2.17,8.159,3.254,13.684,3.254,5.422,0,9.911-1.084,13.462-3.254,3.55-2.169,6.213-5.548,7.988-10.134,1.774-4.586,2.662-10.478,2.662-17.678v-115.978Z"/>
    <path d="M417.013,230.572h57.249v195.269h-57.249v-195.269Z"/>
    <path d="M556.36,282.644l4.29.739v142.458h-57.249v-195.269h77.367l63.759,142.014-4.29.888v-142.901h57.249v195.269h-77.812l-63.314-143.197Z"/>
    <path d="M779.439,282.644l4.29.739v142.458h-57.249v-195.269h77.367l63.759,142.014-4.29.888v-142.901h57.249v195.269h-77.812l-63.314-143.197Z"/>
  </g>
</svg>